<svg width="16" height="16" viewBox="0 0 16 16" fill="none" xmlns="http://www.w3.org/2000/svg">
<path d="M8.50033 4.6665C8.50033 4.39036 8.27647 4.1665 8.00033 4.1665C7.72418 4.1665 7.50033 4.39036 7.50033 4.6665V7.99984C7.50033 8.17223 7.58914 8.33247 7.73533 8.42384L9.73533 9.67384C9.96949 9.82019 10.278 9.74901 10.4243 9.51484C10.5707 9.28067 10.4995 8.97219 10.2653 8.82584L8.50033 7.72271V4.6665Z" fill="#850040"/>
<path fill-rule="evenodd" clip-rule="evenodd" d="M8.00033 2.1665C4.77866 2.1665 2.16699 4.77818 2.16699 7.99984C2.16699 11.2215 4.77866 13.8332 8.00033 13.8332C11.222 13.8332 13.8337 11.2215 13.8337 7.99984C13.8337 4.77818 11.222 2.1665 8.00033 2.1665ZM3.16699 7.99984C3.16699 5.33046 5.33095 3.1665 8.00033 3.1665C10.6697 3.1665 12.8337 5.33046 12.8337 7.99984C12.8337 10.6692 10.6697 12.8332 8.00033 12.8332C5.33095 12.8332 3.16699 10.6692 3.16699 7.99984Z" fill="#850040"/>
</svg>
