<svg width="16" height="16" viewBox="0 0 16 16" fill="none" xmlns="http://www.w3.org/2000/svg">
<path fill-rule="evenodd" clip-rule="evenodd" d="M4.83302 6.66683C4.83302 4.91793 6.25079 3.50016 7.99969 3.50016C9.74859 3.50016 11.1664 4.91793 11.1664 6.66683C11.1664 8.41573 9.74859 9.8335 7.99969 9.8335C6.25079 9.8335 4.83302 8.41573 4.83302 6.66683ZM7.99969 4.50016C6.80307 4.50016 5.83302 5.47021 5.83302 6.66683C5.83302 7.86345 6.80307 8.8335 7.99969 8.8335C9.19631 8.8335 10.1664 7.86345 10.1664 6.66683C10.1664 5.47021 9.19631 4.50016 7.99969 4.50016Z" fill="#850040"/>
<path fill-rule="evenodd" clip-rule="evenodd" d="M2.34927 5.90473C2.58548 3.03899 4.98025 0.833496 7.85571 0.833496H8.14367C11.0191 0.833496 13.4139 3.03899 13.6501 5.90473C13.777 7.44416 13.3015 8.97276 12.3237 10.1685L9.12834 14.0764C8.54501 14.7898 7.45438 14.7898 6.87104 14.0764L3.67567 10.1685C2.69789 8.97276 2.22237 7.44416 2.34927 5.90473ZM7.85571 1.8335C5.50069 1.8335 3.53935 3.63981 3.34589 5.98688C3.24028 7.26811 3.63604 8.54032 4.44981 9.53554L7.64519 13.4434C7.82841 13.6675 8.17097 13.6675 8.3542 13.4434L11.5496 9.53554C12.3633 8.54032 12.7591 7.26811 12.6535 5.98688C12.46 3.63981 10.4987 1.8335 8.14367 1.8335H7.85571Z" fill="#850040"/>
</svg>
